<svg xmlns="http://www.w3.org/2000/svg" viewBox="0 0 1200 900">
<defs>
<linearGradient id="sky" x1="0" y1="0" x2="0" y2="1"><stop offset="0" stop-color="#7FA0B4"/><stop offset=".72" stop-color="#B6CAD4"/><stop offset="1" stop-color="#E3ECEE"/></linearGradient>
<radialGradient id="glow"><stop offset="0" stop-color="#F4C890" stop-opacity=".9"/><stop offset="1" stop-color="#F4C890" stop-opacity="0"/></radialGradient>
<radialGradient id="vig" cx=".5" cy=".46" r=".75"><stop offset=".62" stop-color="#000" stop-opacity="0"/><stop offset="1" stop-color="#000" stop-opacity=".18"/></radialGradient>
<filter id="gr"><feTurbulence type="fractalNoise" baseFrequency="0.9" numOctaves="2" stitchTiles="stitch"/><feColorMatrix type="matrix" values="0 0 0 0 1 0 0 0 0 1 0 0 0 0 1 0 0 0 0.05 0"/></filter>
</defs>
<rect width="1200" height="900" fill="url(#sky)"/>
<circle cx="373" cy="333" r="291" fill="url(#glow)"/>
<circle cx="373" cy="333" r="56" fill="#F4C890" opacity=".95"/>
<path d="M622 126 q 6 -7 13 0 q 6 -7 13 0" stroke="#243A46" stroke-width="2.2" fill="none" opacity=".5" stroke-linecap="round"/>
<path d="M484 240 q 4 -4 7 0 q 4 -4 7 0" stroke="#243A46" stroke-width="2.2" fill="none" opacity=".5" stroke-linecap="round"/>
<path d="M-60 421 Q160 375 380 454 Q600 425 820 427 Q1040 359 1260 401 V910 H-60 Z" fill="#BCCDD2" opacity="0.50"/>
<path d="M-60 524 Q72 506 204 553 Q336 496 468 503 Q600 442 732 469 Q864 418 996 509 Q1128 472 1260 478 V910 H-60 Z" fill="#9EB1B7" opacity="0.62"/>
<path d="M-60 568 Q105 566 270 625 Q435 622 600 636 Q765 551 930 603 Q1095 467 1260 535 V910 H-60 Z" fill="#798E97" opacity="0.75"/>
<path d="M-60 672 Q160 590 380 646 Q600 582 820 609 Q1040 591 1260 697 V910 H-60 Z" fill="#526873" opacity="0.88"/>
<path d="M-60 738 Q72 723 204 745 Q336 705 468 759 Q600 750 732 767 Q864 685 996 701 Q1128 693 1260 726 V910 H-60 Z" fill="#28414E" opacity="1.00"/>
<rect y="809" width="1200" height="91" fill="#466272" opacity=".88"/>
<rect y="809" width="1200" height="2.5" fill="#EEF4F5" opacity=".5"/>
<rect x="276" y="819" width="206" height="3.6" rx="1" fill="#F4C890" opacity="0.13"/>
<rect x="317" y="823" width="124" height="3.0" rx="1" fill="#F4C890" opacity="0.30"/>
<rect x="291" y="832" width="164" height="2.9" rx="1" fill="#F4C890" opacity="0.18"/>
<rect x="257" y="850" width="223" height="3.2" rx="1" fill="#F4C890" opacity="0.26"/>
<rect x="320" y="859" width="108" height="2.4" rx="1" fill="#F4C890" opacity="0.20"/>
<rect x="274" y="871" width="213" height="2.4" rx="1" fill="#F4C890" opacity="0.15"/>
<rect x="259" y="880" width="219" height="2.6" rx="1" fill="#F4C890" opacity="0.26"/>
<rect width="1200" height="900" fill="url(#vig)"/>
<rect width="1200" height="900" filter="url(#gr)"/>
</svg>