<svg xmlns="http://www.w3.org/2000/svg" viewBox="0 0 1200 900">
<defs>
<linearGradient id="sky" x1="0" y1="0" x2="0" y2="1"><stop offset="0" stop-color="#54708C"/><stop offset=".72" stop-color="#93AAC0"/><stop offset="1" stop-color="#D6DEE6"/></linearGradient>
<radialGradient id="glow"><stop offset="0" stop-color="#EAF0F6" stop-opacity=".9"/><stop offset="1" stop-color="#EAF0F6" stop-opacity="0"/></radialGradient>
<radialGradient id="vig" cx=".5" cy=".46" r=".75"><stop offset=".62" stop-color="#000" stop-opacity="0"/><stop offset="1" stop-color="#000" stop-opacity=".18"/></radialGradient>
<filter id="gr"><feTurbulence type="fractalNoise" baseFrequency="0.9" numOctaves="2" stitchTiles="stitch"/><feColorMatrix type="matrix" values="0 0 0 0 1 0 0 0 0 1 0 0 0 0 1 0 0 0 0.05 0"/></filter>
</defs>
<rect width="1200" height="900" fill="url(#sky)"/>
<circle cx="341" cy="304" r="210" fill="url(#glow)"/>
<circle cx="341" cy="304" r="42" fill="#EAF0F6" opacity=".95"/>
<path d="M571 151 q 2 -4 4 0 q 2 -4 4 0" stroke="#1F3A47" stroke-width="2.2" fill="none" opacity=".5" stroke-linecap="round"/>
<path d="M523 176 q 2 -4 4 0 q 2 -4 4 0" stroke="#1F3A47" stroke-width="2.2" fill="none" opacity=".5" stroke-linecap="round"/>
<path d="M630 280 q 2 -5 5 0 q 2 -5 5 0" stroke="#1F3A47" stroke-width="2.2" fill="none" opacity=".5" stroke-linecap="round"/>
<path d="M321 107 q 3 -7 7 0 q 3 -7 7 0" stroke="#1F3A47" stroke-width="2.2" fill="none" opacity=".5" stroke-linecap="round"/>
<path d="M-60 480 Q105 471 270 493 Q435 501 600 501 Q765 518 930 476 Q1095 508 1260 464 V910 H-60 Z" fill="#B9C6D2" opacity="0.50"/>
<path d="M-60 575 Q160 575 380 577 Q600 583 820 591 Q1040 541 1260 577 V910 H-60 Z" fill="#8496A8" opacity="0.67"/>
<path d="M-60 687 Q105 703 270 686 Q435 666 600 695 Q765 693 930 672 Q1095 716 1260 686 V910 H-60 Z" fill="#4F6070" opacity="0.83"/>
<path d="M-60 796 Q105 777 270 794 Q435 757 600 777 Q765 831 930 816 Q1095 832 1260 784 V910 H-60 Z" fill="#22303C" opacity="1.00"/>
<rect width="1200" height="900" fill="url(#vig)"/>
<rect width="1200" height="900" filter="url(#gr)"/>
</svg>