<svg xmlns="http://www.w3.org/2000/svg" viewBox="0 0 900 1200">
<defs>
<linearGradient id="sky" x1="0" y1="0" x2="0" y2="1"><stop offset="0" stop-color="#9FB4C7"/><stop offset=".72" stop-color="#C7D3DF"/><stop offset="1" stop-color="#E7EDF2"/></linearGradient>
<radialGradient id="glow"><stop offset="0" stop-color="#F2F5F8" stop-opacity=".9"/><stop offset="1" stop-color="#F2F5F8" stop-opacity="0"/></radialGradient>
<radialGradient id="vig" cx=".5" cy=".46" r=".75"><stop offset=".62" stop-color="#000" stop-opacity="0"/><stop offset="1" stop-color="#000" stop-opacity=".18"/></radialGradient>
<filter id="gr"><feTurbulence type="fractalNoise" baseFrequency="0.9" numOctaves="2" stitchTiles="stitch"/><feColorMatrix type="matrix" values="0 0 0 0 1 0 0 0 0 1 0 0 0 0 1 0 0 0 0.05 0"/></filter>
</defs>
<rect width="900" height="1200" fill="url(#sky)"/>
<circle cx="681" cy="360" r="256" fill="url(#glow)"/>
<circle cx="681" cy="360" r="49" fill="#F2F5F8" opacity=".95"/>
<path d="M148 405 q 6 -6 12 0 q 6 -6 12 0" stroke="#293744" stroke-width="2.2" fill="none" opacity=".5" stroke-linecap="round"/>
<path d="M584 320 q 6 -6 12 0 q 6 -6 12 0" stroke="#293744" stroke-width="2.2" fill="none" opacity=".5" stroke-linecap="round"/>
<path d="M-45 825 Q120 764 285 845 Q450 777 615 797 Q780 747 945 794 V1210 H-45 Z" fill="#C2CEDA" opacity="0.50"/>
<path d="M-45 898 Q54 844 153 911 Q252 861 351 877 Q450 818 549 833 Q648 773 747 873 Q846 838 945 844 V1210 H-45 Z" fill="#A4B1BD" opacity="0.62"/>
<path d="M-45 964 Q54 885 153 907 Q252 863 351 963 Q450 919 549 955 Q648 935 747 989 Q846 908 945 914 V1210 H-45 Z" fill="#7F8D9A" opacity="0.75"/>
<path d="M-45 1047 Q120 1008 285 1032 Q450 1007 615 1055 Q780 986 945 988 V1210 H-45 Z" fill="#586674" opacity="0.88"/>
<path d="M-45 1139 Q54 1003 153 1048 Q252 1005 351 1057 Q450 1033 549 1152 Q648 1038 747 1107 Q846 1050 945 1090 V1210 H-45 Z" fill="#2E3D4C" opacity="1.00"/>
<rect width="900" height="1200" fill="url(#vig)"/>
<rect width="900" height="1200" filter="url(#gr)"/>
</svg>