<svg xmlns="http://www.w3.org/2000/svg" viewBox="0 0 1200 900">
<defs>
<linearGradient id="sky" x1="0" y1="0" x2="0" y2="1"><stop offset="0" stop-color="#9C7FB0"/><stop offset=".72" stop-color="#CCA7A1"/><stop offset="1" stop-color="#F4C795"/></linearGradient>
<radialGradient id="glow"><stop offset="0" stop-color="#FFD9A0" stop-opacity=".9"/><stop offset="1" stop-color="#FFD9A0" stop-opacity="0"/></radialGradient>
<radialGradient id="vig" cx=".5" cy=".46" r=".75"><stop offset=".62" stop-color="#000" stop-opacity="0"/><stop offset="1" stop-color="#000" stop-opacity=".18"/></radialGradient>
<filter id="gr"><feTurbulence type="fractalNoise" baseFrequency="0.9" numOctaves="2" stitchTiles="stitch"/><feColorMatrix type="matrix" values="0 0 0 0 1 0 0 0 0 1 0 0 0 0 1 0 0 0 0.05 0"/></filter>
</defs>
<rect width="1200" height="900" fill="url(#sky)"/>
<circle cx="478" cy="219" r="341" fill="url(#glow)"/>
<circle cx="478" cy="219" r="66" fill="#FFD9A0" opacity=".95"/>
<path d="M-60 591 Q72 504 204 567 Q336 552 468 617 Q600 588 732 593 Q864 580 996 630 Q1128 524 1260 579 V910 H-60 Z" fill="#D3AE94" opacity="0.50"/>
<path d="M-60 672 Q105 657 270 676 Q435 601 600 642 Q765 595 930 666 Q1095 577 1260 608 V910 H-60 Z" fill="#B79485" opacity="0.62"/>
<path d="M-60 711 Q72 681 204 742 Q336 707 468 740 Q600 682 732 712 Q864 653 996 674 Q1128 667 1260 684 V910 H-60 Z" fill="#947573" opacity="0.75"/>
<path d="M-60 785 Q72 764 204 806 Q336 740 468 753 Q600 699 732 734 Q864 728 996 739 Q1128 685 1260 741 V910 H-60 Z" fill="#6E535F" opacity="0.88"/>
<path d="M-60 848 Q72 817 204 832 Q336 795 468 859 Q600 821 732 834 Q864 768 996 804 Q1128 779 1260 848 V910 H-60 Z" fill="#472F4A" opacity="1.00"/>
<rect width="1200" height="900" fill="url(#vig)"/>
<rect width="1200" height="900" filter="url(#gr)"/>
</svg>