<svg xmlns="http://www.w3.org/2000/svg" viewBox="0 0 1200 900">
<defs>
<linearGradient id="sky" x1="0" y1="0" x2="0" y2="1"><stop offset="0" stop-color="#3E4A78"/><stop offset=".72" stop-color="#8A6E92"/><stop offset="1" stop-color="#D9A38C"/></linearGradient>
<radialGradient id="glow"><stop offset="0" stop-color="#FFC79A" stop-opacity=".9"/><stop offset="1" stop-color="#FFC79A" stop-opacity="0"/></radialGradient>
<radialGradient id="vig" cx=".5" cy=".46" r=".75"><stop offset=".62" stop-color="#000" stop-opacity="0"/><stop offset="1" stop-color="#000" stop-opacity=".18"/></radialGradient>
<filter id="gr"><feTurbulence type="fractalNoise" baseFrequency="0.9" numOctaves="2" stitchTiles="stitch"/><feColorMatrix type="matrix" values="0 0 0 0 1 0 0 0 0 1 0 0 0 0 1 0 0 0 0.05 0"/></filter>
</defs>
<rect width="1200" height="900" fill="url(#sky)"/>
<circle cx="512" cy="169" r="260" fill="url(#glow)"/>
<circle cx="512" cy="169" r="52" fill="#FFC79A" opacity=".95"/>
<path d="M455 179 q 2 -5 5 0 q 2 -5 5 0" stroke="#1F3A47" stroke-width="2.2" fill="none" opacity=".5" stroke-linecap="round"/>
<path d="M190 275 q 2 -5 5 0 q 2 -5 5 0" stroke="#1F3A47" stroke-width="2.2" fill="none" opacity=".5" stroke-linecap="round"/>
<path d="M967 158 q 2 -5 5 0 q 2 -5 5 0" stroke="#1F3A47" stroke-width="2.2" fill="none" opacity=".5" stroke-linecap="round"/>
<path d="M1042 143 q 3 -7 7 0 q 3 -7 7 0" stroke="#1F3A47" stroke-width="2.2" fill="none" opacity=".5" stroke-linecap="round"/>
<path d="M-60 460 Q160 460 380 474 Q600 442 820 479 Q1040 448 1260 461 V910 H-60 Z" fill="#B99C90" opacity="0.50"/>
<path d="M-60 570 Q105 561 270 592 Q435 552 600 578 Q765 591 930 559 Q1095 592 1260 576 V910 H-60 Z" fill="#8E7370" opacity="0.67"/>
<path d="M-60 674 Q105 672 270 676 Q435 693 600 692 Q765 706 930 663 Q1095 703 1260 669 V910 H-60 Z" fill="#5C4A50" opacity="0.83"/>
<path d="M-60 776 Q160 756 380 785 Q600 740 820 796 Q1040 785 1260 779 V910 H-60 Z" fill="#2A2230" opacity="1.00"/>
<rect width="1200" height="900" fill="url(#vig)"/>
<rect width="1200" height="900" filter="url(#gr)"/>
</svg>