<svg xmlns="http://www.w3.org/2000/svg" viewBox="0 0 900 1200">
<defs>
<linearGradient id="sky" x1="0" y1="0" x2="0" y2="1"><stop offset="0" stop-color="#7E9CC0"/><stop offset=".72" stop-color="#D9BFA8"/><stop offset="1" stop-color="#F3DCC4"/></linearGradient>
<radialGradient id="glow"><stop offset="0" stop-color="#FFD79A" stop-opacity=".9"/><stop offset="1" stop-color="#FFD79A" stop-opacity="0"/></radialGradient>
<radialGradient id="vig" cx=".5" cy=".46" r=".75"><stop offset=".62" stop-color="#000" stop-opacity="0"/><stop offset="1" stop-color="#000" stop-opacity=".18"/></radialGradient>
<filter id="gr"><feTurbulence type="fractalNoise" baseFrequency="0.9" numOctaves="2" stitchTiles="stitch"/><feColorMatrix type="matrix" values="0 0 0 0 1 0 0 0 0 1 0 0 0 0 1 0 0 0 0.05 0"/></filter>
</defs>
<rect width="900" height="1200" fill="url(#sky)"/>
<circle cx="247" cy="464" r="266" fill="url(#glow)"/>
<circle cx="247" cy="464" r="51" fill="#FFD79A" opacity=".95"/>
<path d="M-45 826 Q79 781 203 835 Q326 856 450 861 Q574 742 698 828 Q821 807 945 826 V1210 H-45 Z" fill="#C4AE99" opacity="0.50"/>
<path d="M-45 904 Q120 830 285 858 Q450 874 615 873 Q780 799 945 904 V1210 H-45 Z" fill="#A48D7C" opacity="0.63"/>
<path d="M-45 983 Q79 955 203 980 Q326 991 450 1028 Q574 976 698 979 Q821 945 945 983 V1210 H-45 Z" fill="#7C6759" opacity="0.75"/>
<path d="M-45 1061 Q120 1041 285 1094 Q450 1039 615 1103 Q780 984 945 1061 V1210 H-45 Z" fill="#4E403A" opacity="0.88"/>
<path d="M-45 1140 Q54 1173 153 1151 Q252 1108 351 1176 Q450 1143 549 1170 Q648 1085 747 1159 Q846 1069 945 1140 V1210 H-45 Z" fill="#332A27" opacity="1.00"/>
<rect width="900" height="1200" fill="url(#vig)"/>
<rect width="900" height="1200" filter="url(#gr)"/>
</svg>
