<svg xmlns="http://www.w3.org/2000/svg" viewBox="0 0 1200 900">
<defs>
<linearGradient id="sky" x1="0" y1="0" x2="0" y2="1"><stop offset="0" stop-color="#7D93A8"/><stop offset=".72" stop-color="#B9C4CD"/><stop offset="1" stop-color="#E4E8EB"/></linearGradient>
<radialGradient id="glow"><stop offset="0" stop-color="#F6EFE2" stop-opacity=".9"/><stop offset="1" stop-color="#F6EFE2" stop-opacity="0"/></radialGradient>
<radialGradient id="vig" cx=".5" cy=".46" r=".75"><stop offset=".62" stop-color="#000" stop-opacity="0"/><stop offset="1" stop-color="#000" stop-opacity=".18"/></radialGradient>
<filter id="gr"><feTurbulence type="fractalNoise" baseFrequency="0.9" numOctaves="2" stitchTiles="stitch"/><feColorMatrix type="matrix" values="0 0 0 0 1 0 0 0 0 1 0 0 0 0 1 0 0 0 0.05 0"/></filter>
</defs>
<rect width="1200" height="900" fill="url(#sky)"/>
<circle cx="562" cy="329" r="285" fill="url(#glow)"/>
<circle cx="562" cy="329" r="57" fill="#F6EFE2" opacity=".95"/>
<path d="M287 202 q 2 -4 4 0 q 2 -4 4 0" stroke="#1F3A47" stroke-width="2.2" fill="none" opacity=".5" stroke-linecap="round"/>
<path d="M143 156 q 3 -6 6 0 q 3 -6 6 0" stroke="#1F3A47" stroke-width="2.2" fill="none" opacity=".5" stroke-linecap="round"/>
<path d="M768 240 q 2 -4 4 0 q 2 -4 4 0" stroke="#1F3A47" stroke-width="2.2" fill="none" opacity=".5" stroke-linecap="round"/>
<path d="M-60 474 Q105 470 270 481 Q435 510 600 451 Q765 495 930 481 Q1095 513 1260 464 V910 H-60 Z" fill="#C4CBD0" opacity="0.50"/>
<path d="M-60 583 Q72 611 204 583 Q336 599 468 568 Q600 548 732 565 Q864 560 996 598 Q1128 571 1260 597 V910 H-60 Z" fill="#9AA5AC" opacity="0.67"/>
<path d="M-60 652 Q160 689 380 638 Q600 652 820 632 Q1040 680 1260 669 V910 H-60 Z" fill="#69747C" opacity="0.83"/>
<path d="M-60 781 Q105 743 270 785 Q435 820 600 758 Q765 806 930 781 Q1095 804 1260 788 V910 H-60 Z" fill="#2C343A" opacity="1.00"/>
<rect width="1200" height="900" fill="url(#vig)"/>
<rect width="1200" height="900" filter="url(#gr)"/>
</svg>