<svg xmlns="http://www.w3.org/2000/svg" viewBox="0 0 900 1200">
<defs>
<linearGradient id="sky" x1="0" y1="0" x2="0" y2="1"><stop offset="0" stop-color="#8E8AA0"/><stop offset=".72" stop-color="#BDB4B3"/><stop offset="1" stop-color="#E4D6C2"/></linearGradient>
<radialGradient id="glow"><stop offset="0" stop-color="#F2D9A8" stop-opacity=".9"/><stop offset="1" stop-color="#F2D9A8" stop-opacity="0"/></radialGradient>
<radialGradient id="vig" cx=".5" cy=".46" r=".75"><stop offset=".62" stop-color="#000" stop-opacity="0"/><stop offset="1" stop-color="#000" stop-opacity=".18"/></radialGradient>
<filter id="gr"><feTurbulence type="fractalNoise" baseFrequency="0.9" numOctaves="2" stitchTiles="stitch"/><feColorMatrix type="matrix" values="0 0 0 0 1 0 0 0 0 1 0 0 0 0 1 0 0 0 0.05 0"/></filter>
</defs>
<rect width="900" height="1200" fill="url(#sky)"/>
<circle cx="364" cy="402" r="264" fill="url(#glow)"/>
<circle cx="364" cy="402" r="51" fill="#F2D9A8" opacity=".95"/>
<path d="M546 349 q 6 -6 11 0 q 6 -6 11 0" stroke="#343141" stroke-width="2.2" fill="none" opacity=".5" stroke-linecap="round"/>
<path d="M264 208 q 4 -4 8 0 q 4 -4 8 0" stroke="#343141" stroke-width="2.2" fill="none" opacity=".5" stroke-linecap="round"/>
<path d="M-45 782 Q120 670 285 774 Q450 691 615 800 Q780 691 945 790 V1210 H-45 Z" fill="#C6BBB4" opacity="0.50"/>
<path d="M-45 857 Q120 851 285 864 Q450 829 615 902 Q780 807 945 841 V1210 H-45 Z" fill="#AAA09E" opacity="0.62"/>
<path d="M-45 960 Q120 925 285 982 Q450 835 615 891 Q780 888 945 957 V1210 H-45 Z" fill="#877F83" opacity="0.75"/>
<path d="M-45 1037 Q79 960 203 1056 Q326 964 450 965 Q574 923 698 1025 Q821 970 945 1027 V1210 H-45 Z" fill="#615B66" opacity="0.88"/>
<path d="M-45 1121 Q54 1100 153 1143 Q252 1081 351 1111 Q450 1037 549 1055 Q648 1020 747 1094 Q846 1040 945 1090 V1210 H-45 Z" fill="#3A3648" opacity="1.00"/>
<rect width="900" height="1200" fill="url(#vig)"/>
<rect width="900" height="1200" filter="url(#gr)"/>
</svg>