<svg xmlns="http://www.w3.org/2000/svg" viewBox="0 0 1200 900">
<defs>
<linearGradient id="sky" x1="0" y1="0" x2="0" y2="1"><stop offset="0" stop-color="#7C9BB4"/><stop offset=".72" stop-color="#CFC9A8"/><stop offset="1" stop-color="#EFE6C8"/></linearGradient>
<radialGradient id="glow"><stop offset="0" stop-color="#FFE7AE" stop-opacity=".9"/><stop offset="1" stop-color="#FFE7AE" stop-opacity="0"/></radialGradient>
<radialGradient id="vig" cx=".5" cy=".46" r=".75"><stop offset=".62" stop-color="#000" stop-opacity="0"/><stop offset="1" stop-color="#000" stop-opacity=".18"/></radialGradient>
<filter id="gr"><feTurbulence type="fractalNoise" baseFrequency="0.9" numOctaves="2" stitchTiles="stitch"/><feColorMatrix type="matrix" values="0 0 0 0 1 0 0 0 0 1 0 0 0 0 1 0 0 0 0.05 0"/></filter>
</defs>
<rect width="1200" height="900" fill="url(#sky)"/>
<circle cx="248" cy="194" r="205" fill="url(#glow)"/>
<circle cx="248" cy="194" r="41" fill="#FFE7AE" opacity=".95"/>
<path d="M912 95 q 3 -6 6 0 q 3 -6 6 0" stroke="#1F3A47" stroke-width="2.2" fill="none" opacity=".5" stroke-linecap="round"/>
<path d="M283 227 q 2 -5 5 0 q 2 -5 5 0" stroke="#1F3A47" stroke-width="2.2" fill="none" opacity=".5" stroke-linecap="round"/>
<path d="M341 233 q 3 -6 6 0 q 3 -6 6 0" stroke="#1F3A47" stroke-width="2.2" fill="none" opacity=".5" stroke-linecap="round"/>
<path d="M563 238 q 3 -6 6 0 q 3 -6 6 0" stroke="#1F3A47" stroke-width="2.2" fill="none" opacity=".5" stroke-linecap="round"/>
<path d="M-60 421 Q160 417 380 424 Q600 392 820 428 Q1040 401 1260 432 V910 H-60 Z" fill="#BFC7A0" opacity="0.50"/>
<path d="M-60 518 Q160 544 380 501 Q600 483 820 507 Q1040 549 1260 524 V910 H-60 Z" fill="#94A377" opacity="0.67"/>
<path d="M-60 675 Q160 678 380 651 Q600 693 820 698 Q1040 646 1260 688 V910 H-60 Z" fill="#5E7150" opacity="0.83"/>
<path d="M-60 732 Q72 754 204 722 Q336 756 468 731 Q600 737 732 752 Q864 709 996 723 Q1128 698 1260 745 V910 H-60 Z" fill="#2E3C2C" opacity="1.00"/>
<rect width="1200" height="900" fill="url(#vig)"/>
<rect width="1200" height="900" filter="url(#gr)"/>
</svg>