<svg xmlns="http://www.w3.org/2000/svg" viewBox="0 0 1200 900">
<defs>
<linearGradient id="sky" x1="0" y1="0" x2="0" y2="1"><stop offset="0" stop-color="#7FA8CE"/><stop offset=".72" stop-color="#C0C3C0"/><stop offset="1" stop-color="#F6D9B4"/></linearGradient>
<radialGradient id="glow"><stop offset="0" stop-color="#FFE3B4" stop-opacity=".9"/><stop offset="1" stop-color="#FFE3B4" stop-opacity="0"/></radialGradient>
<radialGradient id="vig" cx=".5" cy=".46" r=".75"><stop offset=".62" stop-color="#000" stop-opacity="0"/><stop offset="1" stop-color="#000" stop-opacity=".18"/></radialGradient>
<filter id="gr"><feTurbulence type="fractalNoise" baseFrequency="0.9" numOctaves="2" stitchTiles="stitch"/><feColorMatrix type="matrix" values="0 0 0 0 1 0 0 0 0 1 0 0 0 0 1 0 0 0 0.05 0"/></filter>
</defs>
<rect width="1200" height="900" fill="url(#sky)"/>
<circle cx="327" cy="268" r="330" fill="url(#glow)"/>
<circle cx="327" cy="268" r="64" fill="#FFE3B4" opacity=".95"/>
<path d="M-60 529 Q72 448 204 491 Q336 482 468 566 Q600 507 732 555 Q864 527 996 555 Q1128 475 1260 478 V910 H-60 Z" fill="#D9C3AC" opacity="0.50"/>
<path d="M-60 610 Q105 554 270 554 Q435 515 600 564 Q765 497 930 620 Q1095 565 1260 659 V910 H-60 Z" fill="#A9A197" opacity="0.67"/>
<path d="M-60 697 Q160 641 380 720 Q600 678 820 688 Q1040 624 1260 673 V910 H-60 Z" fill="#6E777E" opacity="0.83"/>
<path d="M-60 772 Q160 739 380 762 Q600 725 820 750 Q1040 705 1260 747 V910 H-60 Z" fill="#2E4A63" opacity="1.00"/>
<rect y="827" width="1200" height="73" fill="#4A6B88" opacity=".88"/>
<rect y="827" width="1200" height="2.5" fill="#FAE8D2" opacity=".5"/>
<rect x="225" y="834" width="204" height="2.6" rx="1" fill="#FFE3B4" opacity="0.19"/>
<rect x="277" y="842" width="111" height="2.2" rx="1" fill="#FFE3B4" opacity="0.13"/>
<rect x="220" y="850" width="227" height="3.0" rx="1" fill="#FFE3B4" opacity="0.25"/>
<rect x="213" y="855" width="241" height="3.2" rx="1" fill="#FFE3B4" opacity="0.23"/>
<rect x="252" y="865" width="137" height="3.1" rx="1" fill="#FFE3B4" opacity="0.17"/>
<rect x="276" y="881" width="113" height="2.4" rx="1" fill="#FFE3B4" opacity="0.17"/>
<rect x="201" y="885" width="257" height="2.3" rx="1" fill="#FFE3B4" opacity="0.21"/>
<rect width="1200" height="900" fill="url(#vig)"/>
<rect width="1200" height="900" filter="url(#gr)"/>
</svg>